<svg width="14" height="24" viewBox="0 0 14 24" fill="none" xmlns="http://www.w3.org/2000/svg">
<path d="M4.14169 12L12.7167 20.575C13.0084 20.8667 13.1493 21.2069 13.1396 21.5958C13.1299 21.9847 12.9792 22.325 12.6875 22.6167C12.3959 22.9083 12.0556 23.0542 11.6667 23.0542C11.2778 23.0542 10.9375 22.9083 10.6459 22.6167L1.66252 13.6625C1.42919 13.4292 1.25419 13.1667 1.13752 12.875C1.02086 12.5833 0.962524 12.2917 0.962524 12C0.962524 11.7083 1.02086 11.4167 1.13752 11.125C1.25419 10.8333 1.42919 10.5708 1.66252 10.3375L10.6459 1.35417C10.9375 1.0625 11.2827 0.921527 11.6813 0.931249C12.0799 0.940971 12.425 1.09167 12.7167 1.38333C13.0084 1.675 13.1542 2.01528 13.1542 2.40417C13.1542 2.79305 13.0084 3.13333 12.7167 3.425L4.14169 12Z" fill="url(#paint0_linear_2060_548)"/>
<defs>
<linearGradient id="paint0_linear_2060_548" x1="0.962524" y1="0.930779" x2="18.5724" y2="6.80131" gradientUnits="userSpaceOnUse">
<stop stop-color="#3A3E94"/>
<stop offset="1" stop-color="#69357C"/>
</linearGradient>
</defs>
</svg>
