<svg width="48" height="48" viewBox="0 0 48 48" fill="none" xmlns="http://www.w3.org/2000/svg">
<path d="M24 0C37.2548 0 48 10.7452 48 24C48 37.2548 37.2548 48 24 48C10.7452 48 0 37.2548 0 24C0 10.7452 10.7452 0 24 0ZM31.2227 10C30.8135 10 30.4702 10.1342 30.1934 10.4023C29.9165 10.6707 29.7773 11.0037 29.7773 11.4004V12.7998H18.2227V11.4004C18.2227 11.0037 18.0835 10.6707 17.8066 10.4023C17.5298 10.1342 17.1865 10 16.7773 10C16.3684 10.0001 16.0257 10.1343 15.749 10.4023C15.4722 10.6707 15.333 11.0037 15.333 11.4004V12.7998H13.8887C13.0944 12.7999 12.4143 13.0739 11.8486 13.6221C11.283 14.1703 11.0001 14.8298 11 15.5996V35.2002C11 35.9701 11.2829 36.6294 11.8486 37.1777C12.4143 37.7259 13.0944 38 13.8887 38H34.1113C34.9056 37.9999 35.5857 37.7259 36.1514 37.1777C36.7171 36.6294 37 35.9701 37 35.2002V15.5996C36.9999 14.8298 36.717 14.1703 36.1514 13.6221C35.5857 13.0739 34.9056 12.7999 34.1113 12.7998H32.667V11.4004C32.667 11.0037 32.5278 10.6707 32.251 10.4023C31.9743 10.1343 31.6316 10.0001 31.2227 10ZM34.1113 21.2002V35.2002H13.8887V21.2002H34.1113ZM18.2227 29.5996C17.8134 29.5996 17.4702 29.7346 17.1934 30.0029C16.9165 30.2713 16.7773 30.6034 16.7773 31C16.7773 31.3966 16.9165 31.7287 17.1934 31.9971C17.4702 32.2654 17.8134 32.4004 18.2227 32.4004C18.6317 32.4003 18.9742 32.2653 19.251 31.9971C19.5278 31.7287 19.667 31.3967 19.667 31C19.667 30.6033 19.5278 30.2713 19.251 30.0029C18.9742 29.7347 18.6317 29.5997 18.2227 29.5996ZM24 29.5996C23.5907 29.5996 23.2476 29.7346 22.9707 30.0029C22.694 30.2712 22.5557 30.6035 22.5557 31C22.5557 31.3965 22.694 31.7288 22.9707 31.9971C23.2476 32.2654 23.5907 32.4004 24 32.4004C24.4093 32.4004 24.7524 32.2654 25.0293 31.9971C25.306 31.7288 25.4443 31.3965 25.4443 31C25.4443 30.6035 25.306 30.2712 25.0293 30.0029C24.7524 29.7346 24.4093 29.5996 24 29.5996ZM29.7773 29.5996C29.3683 29.5997 29.0258 29.7347 28.749 30.0029C28.4722 30.2713 28.333 30.6033 28.333 31C28.333 31.3967 28.4722 31.7287 28.749 31.9971C29.0258 32.2653 29.3683 32.4003 29.7773 32.4004C30.1866 32.4004 30.5298 32.2654 30.8066 31.9971C31.0835 31.7287 31.2227 31.3966 31.2227 31C31.2227 30.6034 31.0835 30.2713 30.8066 30.0029C30.5298 29.7346 30.1866 29.5996 29.7773 29.5996ZM18.2227 24C17.8135 24 17.4702 24.1342 17.1934 24.4023C16.9165 24.6707 16.7773 25.0037 16.7773 25.4004C16.7774 25.7969 16.9166 26.1292 17.1934 26.3975C17.4702 26.6657 17.8135 26.7998 18.2227 26.7998C18.6316 26.7997 18.9743 26.6656 19.251 26.3975C19.5277 26.1292 19.6669 25.7969 19.667 25.4004C19.667 25.0037 19.5278 24.6707 19.251 24.4023C18.9743 24.1343 18.6316 24.0001 18.2227 24ZM24 24C23.5907 24 23.2476 24.134 22.9707 24.4023C22.6939 24.6707 22.5557 25.0037 22.5557 25.4004C22.5558 25.7968 22.694 26.1292 22.9707 26.3975C23.2476 26.6658 23.5907 26.7998 24 26.7998C24.4093 26.7998 24.7524 26.6658 25.0293 26.3975C25.306 26.1292 25.4442 25.7968 25.4443 25.4004C25.4443 25.0037 25.3061 24.6707 25.0293 24.4023C24.7524 24.134 24.4093 24 24 24ZM29.7773 24C29.3684 24.0001 29.0257 24.1343 28.749 24.4023C28.4722 24.6707 28.333 25.0037 28.333 25.4004C28.3331 25.7969 28.4723 26.1292 28.749 26.3975C29.0257 26.6656 29.3684 26.7997 29.7773 26.7998C30.1865 26.7998 30.5298 26.6657 30.8066 26.3975C31.0834 26.1292 31.2226 25.7969 31.2227 25.4004C31.2227 25.0037 31.0835 24.6707 30.8066 24.4023C30.5298 24.1342 30.1865 24 29.7773 24Z" fill="url(#paint0_linear_2367_652)"/>
<defs>
<linearGradient id="paint0_linear_2367_652" x1="0" y1="0" x2="36.4735" y2="55.566" gradientUnits="userSpaceOnUse">
<stop stop-color="#3A3E94"/>
<stop offset="1" stop-color="#69357C"/>
</linearGradient>
</defs>
</svg>
