<svg width="37" height="37" viewBox="0 0 37 37" fill="none" xmlns="http://www.w3.org/2000/svg">
<path d="M18.5 0.333984C8.57463 0.333984 0.50032 8.40861 0.50032 18.3337C0.50032 28.259 8.57463 36.334 18.5 36.334C28.4247 36.334 36.4997 28.259 36.4997 18.3337C36.4997 8.40861 28.4247 0.333984 18.5 0.333984ZM23.5872 11.6968C23.5872 11.7821 23.5534 11.8638 23.4931 11.9241C23.4328 11.9843 23.3511 12.0182 23.2659 12.0182L21.2197 12.0195C19.8697 12.0195 19.6229 12.5452 19.6229 13.5807V15.7287H23.1322C23.2244 15.7287 23.3124 15.7685 23.3732 15.8379C23.4339 15.9074 23.4622 15.9996 23.451 16.0912L22.9512 19.9582C22.9412 20.0356 22.9034 20.1068 22.8447 20.1584C22.786 20.21 22.7106 20.2384 22.6324 20.2384H19.6229V29.8405C19.6229 29.9257 19.589 30.0074 19.5287 30.0677C19.4685 30.128 19.3867 30.1618 19.3015 30.1618H15.3088C15.2236 30.1618 15.1419 30.128 15.0816 30.0677C15.0213 30.0074 14.9875 29.9257 14.9875 29.8405V20.2384H11.9682C11.883 20.2384 11.8013 20.2045 11.741 20.1443C11.6807 20.084 11.6469 20.0023 11.6469 19.917V16.05C11.6469 15.9648 11.6807 15.8831 11.741 15.8228C11.8013 15.7625 11.883 15.7287 11.9682 15.7287H14.9875V13.1979C14.9875 9.84608 17.0159 7.76427 20.282 7.76427C21.686 7.76427 22.9268 7.86872 23.3079 7.91917C23.3852 7.92938 23.4561 7.9673 23.5075 8.02589C23.5588 8.08447 23.5872 8.15973 23.5872 8.23765V11.6968Z" fill="url(#paint0_linear_2060_8)"/>
<defs>
<linearGradient id="paint0_linear_2060_8" x1="0.50032" y1="0.333984" x2="27.8557" y2="42.008" gradientUnits="userSpaceOnUse">
<stop stop-color="#3A3E94"/>
<stop offset="1" stop-color="#69357C"/>
</linearGradient>
</defs>
</svg>