<svg width="48" height="48" viewBox="0 0 48 48" fill="none" xmlns="http://www.w3.org/2000/svg">
<path d="M24 0C10.7659 0 0 10.7662 0 23.9996C0 37.2334 10.7659 48 24 48C37.2332 48 48 37.2334 48 23.9996C48 10.7662 37.2332 0 24 0ZM30.7831 15.1505C30.7831 15.2641 30.7379 15.3731 30.6576 15.4534C30.5772 15.5338 30.4682 15.5789 30.3546 15.5789L27.6264 15.5807C25.8262 15.5807 25.4972 16.2817 25.4972 17.6622V20.5263H30.1763C30.2993 20.5263 30.4167 20.5794 30.4977 20.6719C30.5787 20.7645 30.6164 20.8875 30.6014 21.0096L29.9351 26.1656C29.9217 26.2689 29.8712 26.3638 29.793 26.4326C29.7148 26.5013 29.6142 26.5392 29.51 26.5392H25.4972V39.342C25.4972 39.4556 25.452 39.5646 25.3717 39.645C25.2913 39.7253 25.1823 39.7705 25.0687 39.7705H19.745C19.6314 39.7705 19.5224 39.7253 19.4421 39.645C19.3617 39.5646 19.3165 39.4556 19.3165 39.342V26.5392H15.2908C15.1772 26.5392 15.0682 26.4941 14.9878 26.4137C14.9075 26.3334 14.8623 26.2244 14.8623 26.1107V20.9547C14.8623 20.8411 14.9075 20.7321 14.9878 20.6518C15.0682 20.5714 15.1772 20.5263 15.2908 20.5263H19.3165V17.1519C19.3165 12.6828 22.0212 9.90705 26.376 9.90705C28.2481 9.90705 29.9025 10.0463 30.4107 10.1136C30.5137 10.1272 30.6083 10.1778 30.6768 10.2559C30.7453 10.334 30.783 10.4343 30.7831 10.5382V15.1505Z" fill="url(#paint0_linear_1653_1985)"/>
<defs>
<linearGradient id="paint0_linear_1653_1985" x1="0" y1="0" x2="36.4735" y2="55.566" gradientUnits="userSpaceOnUse">
<stop stop-color="#3A3E94"/>
<stop offset="1" stop-color="#69357C"/>
</linearGradient>
</defs>
</svg>
