<svg width="48" height="48" viewBox="0 0 48 48" fill="none" xmlns="http://www.w3.org/2000/svg">
<path d="M24 0C37.2548 0 48 10.7452 48 24C48 37.2548 37.2548 48 24 48C10.7452 48 0 37.2548 0 24C0 10.7452 10.7452 0 24 0ZM17.1251 9C12.645 9 9 12.6446 9 17.1251V30.8749C9 35.3554 12.645 39 17.1251 39H30.8749C35.3554 39 39 35.3554 39 30.8752V17.1251C39 12.6446 35.3554 9 30.8749 9H17.1251ZM30.8749 11.5001C33.9765 11.5001 36.4999 14.0235 36.4999 17.1251V30.8752C36.4999 33.9769 33.9765 36.5003 30.8749 36.5003H17.1251C14.0235 36.5003 11.5001 33.9769 11.5001 30.8752V17.1251C11.5001 14.0235 14.0235 11.5001 17.1251 11.5001H30.8749ZM24 16.5C19.8645 16.5 16.5 19.8641 16.5 24C16.5 28.1351 19.8645 31.5 24 31.5C28.1355 31.5 31.5 28.1351 31.5 24C31.5 19.8641 28.1355 16.5 24 16.5ZM24 19.0001C26.7574 19.0001 28.9999 21.243 28.9999 24C28.9999 26.7574 26.757 28.9999 24 28.9999C21.243 28.9999 19.0001 26.7574 19.0001 24C19.0001 21.243 21.243 19.0001 24 19.0001ZM31.9688 14.3126C31.0196 14.3126 30.2501 15.0821 30.2501 16.0312C30.2501 16.9804 31.0196 17.7499 31.9688 17.7499C32.9179 17.7499 33.6874 16.9804 33.6874 16.0312C33.6874 15.0821 32.9179 14.3126 31.9688 14.3126Z" fill="url(#paint0_linear_1653_1987)"/>
<defs>
<linearGradient id="paint0_linear_1653_1987" x1="0" y1="0" x2="36.4735" y2="55.566" gradientUnits="userSpaceOnUse">
<stop stop-color="#3A3E94"/>
<stop offset="1" stop-color="#69357C"/>
</linearGradient>
</defs>
</svg>
