<svg width="37" height="37" viewBox="0 0 37 37" fill="none" xmlns="http://www.w3.org/2000/svg">
<path d="M18.5 0.333984C28.4411 0.333984 36.5 8.39287 36.5 18.334C36.5 28.2751 28.4411 36.334 18.5 36.334C8.55888 36.334 0.5 28.2751 0.5 18.334C0.5 8.39287 8.55888 0.333984 18.5 0.333984ZM13.3438 7.08398C9.98375 7.08398 7.25 9.81745 7.25 13.1778V23.4901C7.25 26.8505 9.98375 29.584 13.3438 29.584H23.6562C27.0165 29.584 29.75 26.8505 29.75 23.4904V13.1778C29.75 9.81745 27.0165 7.08398 23.6562 7.08398H13.3438ZM23.6562 8.95908C25.9824 8.95908 27.8749 10.8516 27.8749 13.1778V23.4904C27.8749 25.8166 25.9824 27.7092 23.6562 27.7092H13.3438C11.0176 27.7092 9.12509 25.8166 9.12509 23.4904V13.1778C9.12509 10.8516 11.0176 8.95908 13.3438 8.95908H23.6562ZM18.5 12.709C15.3984 12.709 12.875 15.2321 12.875 18.334C12.875 21.4353 15.3984 23.959 18.5 23.959C21.6016 23.959 24.125 21.4353 24.125 18.334C24.125 15.2321 21.6016 12.709 18.5 12.709ZM18.5 14.5841C20.568 14.5841 22.2499 16.2662 22.2499 18.334C22.2499 20.402 20.5678 22.0839 18.5 22.0839C16.4323 22.0839 14.7501 20.402 14.7501 18.334C14.7501 16.2662 16.4323 14.5841 18.5 14.5841ZM24.4766 11.0685C23.7647 11.0685 23.1876 11.6455 23.1876 12.3574C23.1876 13.0693 23.7647 13.6464 24.4766 13.6464C25.1884 13.6464 25.7655 13.0693 25.7655 12.3574C25.7655 11.6455 25.1884 11.0685 24.4766 11.0685Z" fill="url(#paint0_linear_2060_10)"/>
<defs>
<linearGradient id="paint0_linear_2060_10" x1="0.5" y1="0.333984" x2="27.8551" y2="42.0085" gradientUnits="userSpaceOnUse">
<stop stop-color="#3A3E94"/>
<stop offset="1" stop-color="#69357C"/>
</linearGradient>
</defs>
</svg>