<svg width="18" height="18" viewBox="0 0 18 18" fill="none" xmlns="http://www.w3.org/2000/svg">
<path d="M9 18C7.755 18 6.585 17.7638 5.49 17.2912C4.395 16.8187 3.4425 16.1775 2.6325 15.3675C1.8225 14.5575 1.18125 13.605 0.70875 12.51C0.23625 11.415 0 10.245 0 9C0 7.755 0.23625 6.585 0.70875 5.49C1.18125 4.395 1.8225 3.4425 2.6325 2.6325C3.4425 1.8225 4.395 1.18125 5.49 0.70875C6.585 0.23625 7.755 0 9 0C10.245 0 11.415 0.23625 12.51 0.70875C13.605 1.18125 14.5575 1.8225 15.3675 2.6325C16.1775 3.4425 16.8187 4.395 17.2912 5.49C17.7638 6.585 18 7.755 18 9C18 10.245 17.7638 11.415 17.2912 12.51C16.8187 13.605 16.1775 14.5575 15.3675 15.3675C14.5575 16.1775 13.605 16.8187 12.51 17.2912C11.415 17.7638 10.245 18 9 18ZM9 13.95C9.675 13.275 10.275 12.5775 10.8 11.8575C11.25 11.2425 11.6625 10.5675 12.0375 9.8325C12.4125 9.0975 12.6 8.37 12.6 7.65C12.6 6.66 12.2475 5.8125 11.5425 5.1075C10.8375 4.4025 9.99 4.05 9 4.05C8.01 4.05 7.1625 4.4025 6.4575 5.1075C5.7525 5.8125 5.4 6.66 5.4 7.65C5.4 8.37 5.5875 9.0975 5.9625 9.8325C6.3375 10.5675 6.75 11.2425 7.2 11.8575C7.725 12.5775 8.325 13.275 9 13.95ZM9 9C8.625 9 8.30625 8.86875 8.04375 8.60625C7.78125 8.34375 7.65 8.025 7.65 7.65C7.65 7.275 7.78125 6.95625 8.04375 6.69375C8.30625 6.43125 8.625 6.3 9 6.3C9.375 6.3 9.69375 6.43125 9.95625 6.69375C10.2188 6.95625 10.35 7.275 10.35 7.65C10.35 8.025 10.2188 8.34375 9.95625 8.60625C9.69375 8.86875 9.375 9 9 9Z" fill="url(#paint0_linear_1653_1996)"/>
<defs>
<linearGradient id="paint0_linear_1653_1996" x1="0" y1="0" x2="13.6776" y2="20.8372" gradientUnits="userSpaceOnUse">
<stop stop-color="#3A3E94"/>
<stop offset="1" stop-color="#69357C"/>
</linearGradient>
</defs>
</svg>
