<svg width="48" height="48" viewBox="0 0 48 48" fill="none" xmlns="http://www.w3.org/2000/svg">
<path d="M24 48C20.68 48 17.56 47.37 14.64 46.11C11.72 44.85 9.18 43.14 7.02 40.98C4.86 38.82 3.15 36.28 1.89 33.36C0.63 30.44 0 27.32 0 24C0 20.68 0.63 17.56 1.89 14.64C3.15 11.72 4.86 9.18 7.02 7.02C9.18 4.86 11.72 3.15 14.64 1.89C17.56 0.63 20.68 0 24 0C27.32 0 30.44 0.63 33.36 1.89C36.28 3.15 38.82 4.86 40.98 7.02C43.14 9.18 44.85 11.72 46.11 14.64C47.37 17.56 48 20.68 48 24C48 27.32 47.37 30.44 46.11 33.36C44.85 36.28 43.14 38.82 40.98 40.98C38.82 43.14 36.28 44.85 33.36 46.11C30.44 47.37 27.32 48 24 48ZM24 37.2C25.8 35.4 27.4 33.54 28.8 31.62C30 29.98 31.1 28.18 32.1 26.22C33.1 24.26 33.6 22.32 33.6 20.4C33.6 17.76 32.66 15.5 30.78 13.62C28.9 11.74 26.64 10.8 24 10.8C21.36 10.8 19.1 11.74 17.22 13.62C15.34 15.5 14.4 17.76 14.4 20.4C14.4 22.32 14.9 24.26 15.9 26.22C16.9 28.18 18 29.98 19.2 31.62C20.6 33.54 22.2 35.4 24 37.2ZM24 24C23 24 22.15 23.65 21.45 22.95C20.75 22.25 20.4 21.4 20.4 20.4C20.4 19.4 20.75 18.55 21.45 17.85C22.15 17.15 23 16.8 24 16.8C25 16.8 25.85 17.15 26.55 17.85C27.25 18.55 27.6 19.4 27.6 20.4C27.6 21.4 27.25 22.25 26.55 22.95C25.85 23.65 25 24 24 24Z" fill="url(#paint0_linear_1653_1983)"/>
<defs>
<linearGradient id="paint0_linear_1653_1983" x1="0" y1="0" x2="36.4735" y2="55.566" gradientUnits="userSpaceOnUse">
<stop stop-color="#3A3E94"/>
<stop offset="1" stop-color="#69357C"/>
</linearGradient>
</defs>
</svg>
