<svg width="48" height="48" viewBox="0 0 48 48" fill="none" xmlns="http://www.w3.org/2000/svg">
<path fill-rule="evenodd" clip-rule="evenodd" d="M24 0C37.2548 0 48 10.7452 48 24C48 37.2548 37.2548 48 24 48C10.7452 48 0 37.2548 0 24C0 10.7452 10.7452 0 24 0ZM31.7753 16.3828C30.4053 15.4899 29.4173 14.0605 29.1086 12.3952C29.0405 12.0293 29.0059 11.6581 29.0053 11.286H24.6337L24.6266 28.8057C24.5532 30.7677 22.9383 32.3423 20.9592 32.3423C20.365 32.3426 19.7797 32.1977 19.2543 31.9202C18.0845 31.3047 17.284 30.0788 17.284 28.6679C17.284 26.6416 18.9329 24.9928 20.9585 24.9928C21.3368 24.9928 21.6998 25.0553 22.0428 25.1624V20.6996C21.6876 20.6512 21.3265 20.6213 20.9585 20.6213C16.5219 20.6212 12.9125 24.2305 12.9125 28.6679C12.9125 31.3901 14.2722 33.7991 16.3478 35.2559C17.6546 36.1738 19.2447 36.714 20.9592 36.714C25.3958 36.714 29.0053 33.1046 29.0053 28.6679V19.7837C30.7198 21.0141 32.8207 21.7392 35.0875 21.7392V17.3676C33.8667 17.3676 32.7295 17.0047 31.7753 16.3828Z" fill="url(#paint0_linear_2157_709)"/>
<defs>
<linearGradient id="paint0_linear_2157_709" x1="0" y1="0" x2="36.4735" y2="55.566" gradientUnits="userSpaceOnUse">
<stop stop-color="#3A3E94"/>
<stop offset="1" stop-color="#69357C"/>
</linearGradient>
</defs>
</svg>
