<svg width="48" height="48" viewBox="0 0 48 48" fill="none" xmlns="http://www.w3.org/2000/svg">
<path d="M24 44.16C22.5976 44.16 21.397 43.67 20.3982 42.69C19.3994 41.71 18.9 40.5192 18.9 39.1176C18.9 37.7156 19.3994 36.5156 20.3982 35.5176C21.397 34.5192 22.5976 34.02 24 34.02L25.485 32.5956C25.815 32.2652 26.2032 32 26.6496 31.8C27.0956 31.6 27.5524 31.5 28.02 31.5C29.02 31.5 29.86 31.85 30.54 32.55C31.22 33.25 31.56 34.0946 31.56 35.0838V36.18C31.56 36.98 31.85 37.67 32.43 38.25C33.01 38.83 33.7 39.12 34.5 39.12C35.132 39.12 35.701 38.929 36.207 38.547C36.7126 38.1646 37.0708 37.6762 37.2816 37.0818L38.04 34.98C38.4 33.94 39.0008 33.0994 39.8424 32.4582C40.684 31.8174 41.6518 31.497 42.7458 31.497C43.2086 30.339 43.57 29.12 43.83 27.84C44.09 26.56 44.22 25.26 44.22 23.94C44.22 20.18 43.29 16.77 41.43 13.71C39.57 10.65 37.12 8.22 34.08 6.42V8.76C34.08 10.146 33.5866 11.3326 32.5998 12.3198C31.6126 13.3066 30.426 13.8 29.04 13.8H26.52V18.9C26.52 19.58 26.27 20.17 25.77 20.67C25.27 21.17 24.68 21.42 24 21.42H21.48V25.6812C21.48 26.6004 21.1626 27.38 20.5278 28.02C19.8934 28.66 19.1108 28.98 18.18 28.98C17.62 28.98 17.09 28.85 16.59 28.59C16.09 28.33 15.68 27.98 15.36 27.54L11.3352 21.42H8.82V23.9214C8.82 25.2138 8.39 26.33 7.53 27.27C6.67 28.21 5.62 28.76 4.38 28.92C5.5 33.28 7.875 36.91 11.505 39.81C15.135 42.71 19.3 44.16 24 44.16ZM29.0676 28.98C28.3692 28.98 27.77 28.73 27.27 28.23C26.77 27.73 26.52 27.14 26.52 26.46C26.52 25.78 26.77 25.19 27.27 24.69C27.77 24.19 28.3692 23.94 29.0676 23.94H31.5324C32.2308 23.94 32.83 24.19 33.33 24.69C33.83 25.19 34.08 25.78 34.08 26.46C34.08 27.14 33.83 27.73 33.33 28.23C32.83 28.73 32.2308 28.98 31.5324 28.98H29.0676ZM34.9428 21.42C34.1276 21.42 33.46 21.09 32.94 20.43C32.42 19.77 32.2914 19.042 32.5542 18.246L33.54 15.48C33.74 14.96 34.0438 14.55 34.4514 14.25C34.859 13.95 35.3076 13.8 35.7972 13.8C36.6124 13.8 37.28 14.13 37.8 14.79C38.32 15.45 38.4486 16.178 38.1858 16.974L37.2 19.74C37 20.26 36.6962 20.67 36.2886 20.97C35.881 21.27 35.4324 21.42 34.9428 21.42ZM24.0162 48C20.7066 48 17.5966 47.37 14.6862 46.11C11.7754 44.85 9.23 43.13 7.05 40.95C4.87 38.77 3.15 36.2232 1.89 33.3096C0.63 30.396 0 27.2828 0 23.97C0 20.6572 0.63 17.544 1.89 14.6304C3.15 11.7168 4.87 9.18 7.05 7.02C9.23 4.86 11.7768 3.15 14.6904 1.89C17.604 0.63 20.7172 0 24.03 0C27.3428 0 30.456 0.63 33.3696 1.89C36.2832 3.15 38.82 4.86 40.98 7.02C43.14 9.18 44.85 11.72 46.11 14.64C47.37 17.56 48 20.6746 48 23.9838C48 27.2934 47.37 30.4034 46.11 33.3138C44.85 36.2246 43.14 38.7664 40.98 40.9392C38.82 43.1116 36.28 44.8316 33.36 46.0992C30.44 47.3664 27.3254 48 24.0162 48Z" fill="url(#paint0_linear_1709_291)"/>
<defs>
<linearGradient id="paint0_linear_1709_291" x1="0" y1="0" x2="36.4735" y2="55.566" gradientUnits="userSpaceOnUse">
<stop stop-color="#3A3E94"/>
<stop offset="1" stop-color="#69357C"/>
</linearGradient>
</defs>
</svg>
