<svg width="48" height="48" viewBox="0 0 48 48" fill="none" xmlns="http://www.w3.org/2000/svg">
<mask id="mask0_1641_108" style="mask-type:alpha" maskUnits="userSpaceOnUse" x="0" y="0" width="48" height="48">
<rect width="48" height="48" fill="#D9D9D9"/>
</mask>
<g mask="url(#mask0_1641_108)">
<path d="M10 44C10 39.3333 11.0833 35.5667 13.25 32.7C15.4167 29.8333 18.2333 26.9333 21.7 24C18.2333 21.0667 15.4167 18.1667 13.25 15.3C11.0833 12.4333 10 8.66667 10 4V3C10 2.56667 10.1417 2.20833 10.425 1.925C10.7083 1.64167 11.0667 1.5 11.5 1.5C11.9333 1.5 12.2917 1.64167 12.575 1.925C12.8583 2.20833 13 2.56667 13 3V4C13 4.36667 13.0083 4.70833 13.025 5.025C13.0417 5.34167 13.0667 5.66667 13.1 6H34.9C34.9333 5.66667 34.9583 5.34167 34.975 5.025C34.9917 4.70833 35 4.36667 35 4V3C35 2.56667 35.1417 2.20833 35.425 1.925C35.7083 1.64167 36.0667 1.5 36.5 1.5C36.9333 1.5 37.2917 1.64167 37.575 1.925C37.8583 2.20833 38 2.56667 38 3V4C38 8.66667 36.9167 12.4333 34.75 15.3C32.5833 18.1667 29.7667 21.0667 26.3 24C29.7667 26.9333 32.5833 29.8333 34.75 32.7C36.9167 35.5667 38 39.3333 38 44V45C38 45.4333 37.8583 45.7917 37.575 46.075C37.2917 46.3583 36.9333 46.5 36.5 46.5C36.0667 46.5 35.7083 46.3583 35.425 46.075C35.1417 45.7917 35 45.4333 35 45V44C35 43.6333 34.9917 43.2917 34.975 42.975C34.9583 42.6583 34.9333 42.3333 34.9 42H13.1C13.0667 42.3333 13.0417 42.6583 13.025 42.975C13.0083 43.2917 13 43.6333 13 44V45C13 45.4333 12.8583 45.7917 12.575 46.075C12.2917 46.3583 11.9333 46.5 11.5 46.5C11.0667 46.5 10.7083 46.3583 10.425 46.075C10.1417 45.7917 10 45.4333 10 45V44ZM16 14H32C32.5333 13.2333 32.9917 12.4417 33.375 11.625C33.7583 10.8083 34.0833 9.93333 34.35 9H13.65C13.9167 9.93333 14.2417 10.8083 14.625 11.625C15.0083 12.4417 15.4667 13.2333 16 14ZM24 22.05C25.0333 21.1833 26.0167 20.3417 26.95 19.525C27.8833 18.7083 28.75 17.8667 29.55 17H18.45C19.25 17.8667 20.1083 18.7083 21.025 19.525C21.9417 20.3417 22.9333 21.1833 24 22.05ZM18.45 31H29.55C28.75 30.1333 27.8833 29.2917 26.95 28.475C26.0167 27.6583 25.0333 26.8167 24 25.95C22.9667 26.8167 21.9833 27.6583 21.05 28.475C20.1167 29.2917 19.25 30.1333 18.45 31ZM13.65 39H34.35C34.0833 38.0667 33.7583 37.1917 33.375 36.375C32.9917 35.5583 32.5333 34.7667 32 34H16C15.4667 34.7667 15.0083 35.5583 14.625 36.375C14.2417 37.1917 13.9167 38.0667 13.65 39Z" fill="url(#paint0_linear_1641_108)"/>
</g>
<defs>
<linearGradient id="paint0_linear_1641_108" x1="10" y1="1.5" x2="47.2158" y2="36.778" gradientUnits="userSpaceOnUse">
<stop stop-color="#3A3E94"/>
<stop offset="1" stop-color="#69357C"/>
</linearGradient>
</defs>
</svg>
