<svg width="48" height="48" viewBox="0 0 48 48" fill="none" xmlns="http://www.w3.org/2000/svg">
<mask id="mask0_1641_126" style="mask-type:alpha" maskUnits="userSpaceOnUse" x="0" y="0" width="48" height="48">
<rect width="48" height="48" fill="#D9D9D9"/>
</mask>
<g mask="url(#mask0_1641_126)">
<path d="M24 41.5C23.5667 41.5 23.2083 41.3583 22.925 41.075C22.6417 40.7917 22.5 40.4333 22.5 40V26.05H21.5C19.3667 26.05 17.3583 25.6417 15.475 24.825C13.5917 24.0083 11.9167 22.85 10.45 21.35C8.98333 19.85 7.875 18.1167 7.125 16.15C6.375 14.1833 6 12.1333 6 10V7.5C6 7.06667 6.14167 6.70833 6.425 6.425C6.70833 6.14167 7.06667 6 7.5 6H9.9C11.9667 6 13.95 6.40833 15.85 7.225C17.75 8.04167 19.45 9.2 20.95 10.7C22.05 11.8333 22.9583 13.1 23.675 14.5C24.3917 15.9 24.9 17.3833 25.2 18.95C25.4667 18.55 25.75 18.1667 26.05 17.8C26.35 17.4333 26.6667 17.0667 27 16.7C28.5 15.2 30.2 14.0417 32.1 13.225C34 12.4083 36 12 38.1 12H40.5C40.9333 12 41.2917 12.1417 41.575 12.425C41.8583 12.7083 42 13.0667 42 13.5V16C42 18.1333 41.6 20.1833 40.8 22.15C40 24.1167 38.8667 25.85 37.4 27.35C35.9 28.85 34.2083 30 32.325 30.8C30.4417 31.6 28.4667 32 26.4 32H25.5V40C25.5 40.4333 25.3583 40.7917 25.075 41.075C24.7917 41.3583 24.4333 41.5 24 41.5Z" fill="url(#paint0_linear_1641_126)"/>
</g>
<defs>
<linearGradient id="paint0_linear_1641_126" x1="6" y1="6" x2="32.8234" y2="47.4399" gradientUnits="userSpaceOnUse">
<stop stop-color="#3A3E94"/>
<stop offset="1" stop-color="#69357C"/>
</linearGradient>
</defs>
</svg>
