<svg width="48" height="48" viewBox="0 0 48 48" fill="none" xmlns="http://www.w3.org/2000/svg">
<mask id="mask0_1641_123" style="mask-type:alpha" maskUnits="userSpaceOnUse" x="0" y="0" width="48" height="48">
<rect width="48" height="48" fill="#D9D9D9"/>
</mask>
<g mask="url(#mask0_1641_123)">
<path d="M30.493 9.50012C29.931 9.50012 29.4583 9.30612 29.075 8.91812C28.6917 8.53012 28.5 8.05512 28.5 7.49312C28.5 6.93112 28.694 6.45845 29.082 6.07512C29.47 5.69179 29.945 5.50012 30.507 5.50012C31.069 5.50012 31.5417 5.69412 31.925 6.08212C32.3083 6.47012 32.5 6.94512 32.5 7.50712C32.5 8.06912 32.306 8.54179 31.918 8.92512C31.53 9.30845 31.055 9.50012 30.493 9.50012ZM30.493 42.5001C29.931 42.5001 29.4583 42.3061 29.075 41.9181C28.6917 41.5301 28.5 41.0551 28.5 40.4931C28.5 39.9311 28.694 39.4585 29.082 39.0751C29.47 38.6918 29.945 38.5001 30.507 38.5001C31.069 38.5001 31.5417 38.6941 31.925 39.0821C32.3083 39.4701 32.5 39.9451 32.5 40.5071C32.5 41.0691 32.306 41.5418 31.918 41.9251C31.53 42.3085 31.055 42.5001 30.493 42.5001ZM38.493 16.5001C37.931 16.5001 37.4583 16.3061 37.075 15.9181C36.6917 15.5301 36.5 15.0551 36.5 14.4931C36.5 13.9311 36.694 13.4585 37.082 13.0751C37.47 12.6918 37.945 12.5001 38.507 12.5001C39.069 12.5001 39.5417 12.6941 39.925 13.0821C40.3083 13.4701 40.5 13.9451 40.5 14.5071C40.5 15.0691 40.306 15.5418 39.918 15.9251C39.53 16.3085 39.055 16.5001 38.493 16.5001ZM38.493 35.5001C37.931 35.5001 37.4583 35.3061 37.075 34.9181C36.6917 34.5301 36.5 34.0551 36.5 33.4931C36.5 32.9311 36.694 32.4585 37.082 32.0751C37.47 31.6918 37.945 31.5001 38.507 31.5001C39.069 31.5001 39.5417 31.6941 39.925 32.0821C40.3083 32.4701 40.5 32.9451 40.5 33.5071C40.5 34.0691 40.306 34.5418 39.918 34.9251C39.53 35.3085 39.055 35.5001 38.493 35.5001ZM41.493 26.0001C40.931 26.0001 40.4583 25.8061 40.075 25.4181C39.6917 25.0301 39.5 24.5551 39.5 23.9931C39.5 23.4311 39.694 22.9585 40.082 22.5751C40.47 22.1918 40.945 22.0001 41.507 22.0001C42.069 22.0001 42.5417 22.1941 42.925 22.5821C43.3083 22.9701 43.5 23.4451 43.5 24.0071C43.5 24.5691 43.306 25.0418 42.918 25.4251C42.53 25.8085 42.055 26.0001 41.493 26.0001ZM4 24.0081C4 18.7361 5.76667 14.2001 9.3 10.4001C12.8333 6.60012 17.1833 4.48345 22.35 4.05012C22.7833 4.01679 23.1667 4.14379 23.5 4.43112C23.8333 4.71879 24 5.07512 24 5.50012C24 5.90012 23.8675 6.24629 23.6025 6.53862C23.3378 6.83095 23.0037 7.00145 22.6 7.05012C18.2 7.41679 14.5 9.21895 11.5 12.4566C8.5 15.6946 7 19.544 7 24.0046C7 28.5016 8.5 32.3585 11.5 35.5751C14.5 38.7918 18.2 40.5835 22.6 40.9501C23.0037 40.9995 23.3378 41.1716 23.6025 41.4666C23.8675 41.762 24 42.1065 24 42.5001C24 42.9251 23.8333 43.2813 23.5 43.5686C23.1667 43.8563 22.7833 43.9835 22.35 43.9501C17.1833 43.5168 12.8333 41.4028 9.3 37.6081C5.76667 33.8138 4 29.2805 4 24.0081ZM23.9955 27.5001C23.0318 27.5001 22.2083 27.1575 21.525 26.4721C20.8417 25.7865 20.5 24.9625 20.5 24.0001C20.5 23.8021 20.5167 23.5943 20.55 23.3766C20.5833 23.159 20.6333 22.9613 20.7 22.7836L17.75 19.8501C17.45 19.5501 17.3 19.2001 17.3 18.8001C17.3 18.4001 17.45 18.0501 17.75 17.7501C18.05 17.4501 18.4 17.3085 18.8 17.3251C19.2 17.3418 19.55 17.4835 19.85 17.7501L22.85 20.7001C23.0167 20.6335 23.4 20.5668 24 20.5001C24.9627 20.5001 25.7867 20.8433 26.472 21.5296C27.1573 22.216 27.5 23.041 27.5 24.0046C27.5 24.9683 27.1568 25.7918 26.4705 26.4751C25.7842 27.1585 24.9592 27.5001 23.9955 27.5001Z" fill="url(#paint0_linear_1641_123)"/>
</g>
<defs>
<linearGradient id="paint0_linear_1641_123" x1="4" y1="4.04492" x2="34.4501" y2="49.9574" gradientUnits="userSpaceOnUse">
<stop stop-color="#3A3E94"/>
<stop offset="1" stop-color="#69357C"/>
</linearGradient>
</defs>
</svg>
