<svg width="48" height="48" viewBox="0 0 48 48" fill="none" xmlns="http://www.w3.org/2000/svg">
<mask id="mask0_1641_111" style="mask-type:alpha" maskUnits="userSpaceOnUse" x="0" y="0" width="48" height="48">
<rect width="48" height="48" fill="#D9D9D9"/>
</mask>
<g mask="url(#mask0_1641_111)">
<path d="M10.65 41.9999C9.98335 41.9999 9.42501 41.7749 8.97501 41.3249C8.52501 40.8749 8.30001 40.3166 8.30001 39.6499C8.30001 38.9832 8.52501 38.4249 8.97501 37.9749C9.42501 37.5249 9.98335 37.2999 10.65 37.2999H14.65L9.35001 19.1999C8.28335 18.6999 7.45001 18.0249 6.85001 17.1749C6.25001 16.3249 5.95001 15.1999 5.95001 13.7999C5.95001 12.2332 6.52501 10.8749 7.67501 9.7249C8.82501 8.5749 10.1833 7.9999 11.75 7.9999C13.2167 7.9999 14.4333 8.39157 15.4 9.1749C16.3667 9.95823 17.0167 10.9999 17.35 12.2999H24.65V9.3499C24.65 8.9499 24.8 8.5999 25.1 8.2999C25.4 7.9999 25.75 7.8499 26.15 7.8499C26.5167 7.8499 26.825 7.99157 27.075 8.2749C27.325 8.55823 27.45 8.88323 27.45 9.2499L31.2 5.6499C31.4667 5.38323 31.8083 5.20823 32.225 5.1249C32.6417 5.04157 33.0667 5.0999 33.5 5.2999L41.4 9.0999C41.7 9.26657 41.9084 9.4999 42.025 9.7999C42.1417 10.0999 42.1167 10.4166 41.95 10.7499C41.7833 11.0832 41.5417 11.2832 41.225 11.3499C40.9083 11.4166 40.6 11.3666 40.3 11.1999L32.55 7.4499L27.65 12.3999V14.9999L32.55 20.1499L40.3 16.3499C40.6333 16.1832 40.95 16.1416 41.25 16.2249C41.55 16.3082 41.7833 16.5166 41.95 16.8499C42.1167 17.1832 42.1417 17.5166 42.025 17.8499C41.9084 18.1832 41.6833 18.4332 41.35 18.5999L33.7 22.1999C33.2333 22.4332 32.7833 22.5416 32.35 22.5249C31.9167 22.5082 31.5333 22.3332 31.2 21.9999L27.45 18.3999C27.45 18.8666 27.325 19.2166 27.075 19.4499C26.825 19.6832 26.5167 19.7999 26.15 19.7999C25.75 19.7999 25.4 19.6499 25.1 19.3499C24.8 19.0499 24.65 18.6999 24.65 18.2999V15.2999H17.25C17.25 15.6999 17.1417 16.1082 16.925 16.5249C16.7083 16.9416 16.45 17.2832 16.15 17.5499L26.4 37.2999H31.95C32.6167 37.2999 33.175 37.5249 33.625 37.9749C34.075 38.4249 34.3 38.9832 34.3 39.6499C34.3 40.3166 34.075 40.8749 33.625 41.3249C33.175 41.7749 32.6167 41.9999 31.95 41.9999H10.65ZM11.75 16.5999C12.55 16.5999 13.2167 16.3332 13.75 15.7999C14.2833 15.2666 14.55 14.5999 14.55 13.7999C14.55 12.9999 14.2833 12.3332 13.75 11.7999C13.2167 11.2666 12.55 10.9999 11.75 10.9999C10.95 10.9999 10.2833 11.2666 9.75001 11.7999C9.21668 12.3332 8.95001 12.9999 8.95001 13.7999C8.95001 14.5999 9.21668 15.2666 9.75001 15.7999C10.2833 16.3332 10.95 16.5999 11.75 16.5999Z" fill="url(#paint0_linear_1641_111)"/>
</g>
<defs>
<linearGradient id="paint0_linear_1641_111" x1="5.95001" y1="5.08813" x2="34.2273" y2="47.2749" gradientUnits="userSpaceOnUse">
<stop stop-color="#3A3E94"/>
<stop offset="1" stop-color="#69357C"/>
</linearGradient>
</defs>
</svg>
