<svg width="48" height="48" viewBox="0 0 48 48" fill="none" xmlns="http://www.w3.org/2000/svg">
<mask id="mask0_1641_132" style="mask-type:alpha" maskUnits="userSpaceOnUse" x="0" y="0" width="48" height="48">
<rect width="48" height="48" fill="#D9D9D9"/>
</mask>
<g mask="url(#mask0_1641_132)">
<path d="M7 44C6.16667 44 5.45833 43.7083 4.875 43.125C4.29167 42.5417 4 41.8333 4 41V21.95C4 21.35 4.16667 20.7917 4.5 20.275C4.83333 19.7583 5.28333 19.3833 5.85 19.15L15.9 14.9C16.4 14.7 16.875 14.7417 17.325 15.025C17.775 15.3083 18 15.7167 18 16.25V18L25.95 14.8C26.45 14.6 26.9167 14.65 27.35 14.95C27.7833 15.25 28 15.6667 28 16.2V20H44V41C44 41.8333 43.7083 42.5417 43.125 43.125C42.5417 43.7083 41.8333 44 41 44H7ZM22.5 36H25.5V28H22.5V36ZM14.5 36H17.5V28H14.5V36ZM30.5 36H33.5V28H30.5V36ZM43.75 18H35.25L36.85 5.3C36.9167 4.93333 37.0833 4.625 37.35 4.375C37.6167 4.125 37.9333 4 38.3 4H40.7C41.0667 4 41.3833 4.125 41.65 4.375C41.9167 4.625 42.0833 4.93333 42.15 5.3L43.75 18Z" fill="url(#paint0_linear_1641_132)"/>
</g>
<defs>
<linearGradient id="paint0_linear_1641_132" x1="4" y1="4" x2="34.3946" y2="50.305" gradientUnits="userSpaceOnUse">
<stop stop-color="#3A3E94"/>
<stop offset="1" stop-color="#69357C"/>
</linearGradient>
</defs>
</svg>
