<svg width="48" height="48" viewBox="0 0 48 48" fill="none" xmlns="http://www.w3.org/2000/svg">
<mask id="mask0_1641_120" style="mask-type:alpha" maskUnits="userSpaceOnUse" x="0" y="0" width="48" height="48">
<rect width="48" height="48" fill="#D9D9D9"/>
</mask>
<g mask="url(#mask0_1641_120)">
<path d="M22 22.7L15.9 39.5L15.75 39.75L14.5 40.95C14.2667 41.1833 14.0167 41.2417 13.75 41.125C13.4833 41.0083 13.3167 40.8 13.25 40.5L13 38.9C13 38.9333 13.0167 38.8167 13.05 38.55L19.35 21.2C19.7167 21.5667 20.125 21.8667 20.575 22.1C21.025 22.3333 21.5 22.5333 22 22.7ZM24 22C22.3333 22 20.9167 21.4167 19.75 20.25C18.5833 19.0833 18 17.6667 18 16C18 14.6 18.4083 13.3583 19.225 12.275C20.0417 11.1917 21.1333 10.5 22.5 10.2V7.5C22.5 7.06667 22.6417 6.70833 22.925 6.425C23.2083 6.14167 23.5667 6 24 6C24.4333 6 24.7917 6.14167 25.075 6.425C25.3583 6.70833 25.5 7.06667 25.5 7.5V10.2C26.8667 10.5 27.9583 11.1917 28.775 12.275C29.5917 13.3583 30 14.6 30 16C30 17.6667 29.4167 19.0833 28.25 20.25C27.0833 21.4167 25.6667 22 24 22ZM24 19C24.8333 19 25.5417 18.7083 26.125 18.125C26.7083 17.5417 27 16.8333 27 16C27 15.1667 26.7083 14.4583 26.125 13.875C25.5417 13.2917 24.8333 13 24 13C23.1667 13 22.4583 13.2917 21.875 13.875C21.2917 14.4583 21 15.1667 21 16C21 16.8333 21.2917 17.5417 21.875 18.125C22.4583 18.7083 23.1667 19 24 19ZM25.9 22.75C26.4 22.5833 26.8833 22.3833 27.35 22.15C27.8167 21.9167 28.2333 21.6167 28.6 21.25L34.95 38.55C35.0167 38.6833 35.0167 38.8 34.95 38.9L34.75 40.5C34.6833 40.8 34.5167 41.0083 34.25 41.125C33.9833 41.2417 33.7333 41.1833 33.5 40.95L32.25 39.75C32.15 39.65 32.1 39.5667 32.1 39.5L25.9 22.75Z" fill="url(#paint0_linear_1641_120)"/>
</g>
<defs>
<linearGradient id="paint0_linear_1641_120" x1="13" y1="6" x2="42.1045" y2="33.7254" gradientUnits="userSpaceOnUse">
<stop stop-color="#3A3E94"/>
<stop offset="1" stop-color="#69357C"/>
</linearGradient>
</defs>
</svg>
