<svg width="48" height="48" viewBox="0 0 48 48" fill="none" xmlns="http://www.w3.org/2000/svg">
<mask id="mask0_1641_102" style="mask-type:alpha" maskUnits="userSpaceOnUse" x="0" y="0" width="48" height="48">
<rect width="48" height="48" fill="#D9D9D9"/>
</mask>
<g mask="url(#mask0_1641_102)">
<path d="M7 40C6.2 40 5.5 39.7 4.9 39.1C4.3 38.5 4 37.8 4 37V11C4 10.2 4.3 9.5 4.9 8.9C5.5 8.3 6.2 8 7 8H41C41.8 8 42.5 8.3 43.1 8.9C43.7 9.5 44 10.2 44 11V37C44 37.8 43.7 38.5 43.1 39.1C42.5 39.7 41.8 40 41 40H7ZM7 37H41V15.2H7V37ZM18.05 26.1L13.9 21.95C13.6 21.65 13.4583 21.3 13.475 20.9C13.4917 20.5 13.65 20.15 13.95 19.85C14.25 19.55 14.6 19.4 15 19.4C15.4 19.4 15.75 19.55 16.05 19.85L21.25 25.05C21.55 25.35 21.7 25.7 21.7 26.1C21.7 26.5 21.55 26.85 21.25 27.15L16.05 32.35C15.75 32.65 15.4 32.8 15 32.8C14.6 32.8 14.25 32.65 13.95 32.35C13.65 32.05 13.5 31.7 13.5 31.3C13.5 30.9 13.65 30.55 13.95 30.25L18.05 26.1ZM26 33.6C25.5667 33.6 25.2083 33.4583 24.925 33.175C24.6417 32.8917 24.5 32.5333 24.5 32.1C24.5 31.6667 24.6417 31.3083 24.925 31.025C25.2083 30.7417 25.5667 30.6 26 30.6H34C34.4333 30.6 34.7917 30.7417 35.075 31.025C35.3583 31.3083 35.5 31.6667 35.5 32.1C35.5 32.5333 35.3583 32.8917 35.075 33.175C34.7917 33.4583 34.4333 33.6 34 33.6H26Z" fill="url(#paint0_linear_1641_102)"/>
</g>
<defs>
<linearGradient id="paint0_linear_1641_102" x1="4" y1="8" x2="25.8176" y2="49.5479" gradientUnits="userSpaceOnUse">
<stop stop-color="#3A3E94"/>
<stop offset="1" stop-color="#69357C"/>
</linearGradient>
</defs>
</svg>
