<svg width="48" height="48" viewBox="0 0 48 48" fill="none" xmlns="http://www.w3.org/2000/svg">
<mask id="mask0_1641_117" style="mask-type:alpha" maskUnits="userSpaceOnUse" x="0" y="0" width="48" height="48">
<rect width="48" height="48" fill="#D9D9D9"/>
</mask>
<g mask="url(#mask0_1641_117)">
<path d="M22.85 28.7L9.25 27.1C8.61667 27.0333 8.2 26.6916 8 26.075C7.8 25.4583 7.93334 24.9333 8.4 24.5L30.4 4.29995C30.5333 4.19995 30.675 4.11662 30.825 4.04995C30.975 3.98328 31.2 3.94995 31.5 3.94995C32 3.94995 32.3833 4.15828 32.65 4.57495C32.9167 4.99162 32.9167 5.41662 32.65 5.84995L25.15 19.3L38.75 20.9C39.3833 20.9666 39.8 21.3083 40 21.925C40.2 22.5416 40.0667 23.0666 39.6 23.5L17.6 43.7C17.4667 43.8 17.325 43.8833 17.175 43.95C17.025 44.0166 16.8 44.05 16.5 44.05C16 44.05 15.6167 43.8416 15.35 43.425C15.0833 43.0083 15.0833 42.5833 15.35 42.15L22.85 28.7Z" fill="url(#paint0_linear_1641_117)"/>
</g>
<defs>
<linearGradient id="paint0_linear_1641_117" x1="7.91" y1="3.94995" x2="40.4614" y2="43.7462" gradientUnits="userSpaceOnUse">
<stop stop-color="#3A3E94"/>
<stop offset="1" stop-color="#69357C"/>
</linearGradient>
</defs>
</svg>
