<svg width="48" height="48" viewBox="0 0 48 48" fill="none" xmlns="http://www.w3.org/2000/svg">
<mask id="mask0_1641_129" style="mask-type:alpha" maskUnits="userSpaceOnUse" x="0" y="0" width="48" height="48">
<rect width="48" height="48" fill="#D9D9D9"/>
</mask>
<g mask="url(#mask0_1641_129)">
<path d="M6.5 20.0001C6.5 21.9001 6.85833 23.8668 7.575 25.9001C8.29167 27.9334 9.33333 29.7501 10.7 31.3501C10.9667 31.6168 11.1167 31.9251 11.15 32.2751C11.1833 32.6251 11.0667 32.9334 10.8 33.2001C10.5333 33.4668 10.225 33.5918 9.875 33.5751C9.525 33.5584 9.23333 33.4168 9 33.1501C7.3 31.2501 6.04167 29.1501 5.225 26.8501C4.40833 24.5501 4 22.2668 4 20.0001C4 17.7334 4.40833 15.4501 5.225 13.1501C6.04167 10.8501 7.3 8.75009 9 6.85009C9.23333 6.58342 9.51667 6.43342 9.85 6.40009C10.1833 6.36675 10.4833 6.48342 10.75 6.75009C11.0167 7.01675 11.1417 7.33342 11.125 7.70009C11.1083 8.06675 10.9667 8.38342 10.7 8.65009C9.33333 10.2501 8.29167 12.0668 7.575 14.1001C6.85833 16.1334 6.5 18.1001 6.5 20.0001ZM13.1 20.0001C13.1 21.0001 13.3167 22.1168 13.75 23.3501C14.1833 24.5834 14.75 25.7168 15.45 26.7501C15.65 27.0501 15.7583 27.3668 15.775 27.7001C15.7917 28.0334 15.6667 28.3334 15.4 28.6001C15.1333 28.8668 14.825 28.9918 14.475 28.9751C14.125 28.9584 13.8333 28.8168 13.6 28.5501C12.5667 27.3168 11.8083 25.9334 11.325 24.4001C10.8417 22.8668 10.6 21.4001 10.6 20.0001C10.6 18.6001 10.8417 17.1334 11.325 15.6001C11.8083 14.0668 12.5667 12.6834 13.6 11.4501C13.8333 11.1834 14.1167 11.0418 14.45 11.0251C14.7833 11.0084 15.0833 11.1334 15.35 11.4001C15.6167 11.6668 15.75 11.9668 15.75 12.3001C15.75 12.6334 15.65 12.9334 15.45 13.2001C14.7167 14.1668 14.1417 15.2668 13.725 16.5001C13.3083 17.7334 13.1 18.9001 13.1 20.0001ZM19.15 39.5001L17.95 43.0501C17.85 43.3168 17.6833 43.5418 17.45 43.7251C17.2167 43.9084 16.95 44.0001 16.65 44.0001C16.1833 44.0001 15.8 43.8084 15.5 43.4251C15.2 43.0418 15.1333 42.6168 15.3 42.1501L21.35 23.7501C20.7833 23.3501 20.325 22.8334 19.975 22.2001C19.625 21.5668 19.45 20.8334 19.45 20.0001C19.45 18.7334 19.8917 17.6584 20.775 16.7751C21.6583 15.8918 22.7333 15.4501 24 15.4501C25.2667 15.4501 26.3417 15.8918 27.225 16.7751C28.1083 17.6584 28.55 18.7334 28.55 20.0001C28.55 20.8334 28.375 21.5668 28.025 22.2001C27.675 22.8334 27.2167 23.3501 26.65 23.7501L32.7 42.1501C32.8667 42.6168 32.8 43.0418 32.5 43.4251C32.2 43.8084 31.8167 44.0001 31.35 44.0001C31.05 44.0001 30.7833 43.9168 30.55 43.7501C30.3167 43.5834 30.15 43.3501 30.05 43.0501L28.9 39.5001H19.15ZM20.1 36.5001H27.9L24 24.6001L20.1 36.5001ZM34.9 20.0001C34.9 19.0001 34.6833 17.8834 34.25 16.6501C33.8167 15.4168 33.25 14.2834 32.55 13.2501C32.35 12.9501 32.25 12.6334 32.25 12.3001C32.25 11.9668 32.3833 11.6668 32.65 11.4001C32.9167 11.1334 33.2167 11.0084 33.55 11.0251C33.8833 11.0418 34.1667 11.1834 34.4 11.4501C35.4 12.6834 36.15 14.0668 36.65 15.6001C37.15 17.1334 37.4 18.6001 37.4 20.0001C37.4 21.4001 37.15 22.8668 36.65 24.4001C36.15 25.9334 35.4 27.3168 34.4 28.5501C34.1667 28.8168 33.8833 28.9584 33.55 28.9751C33.2167 28.9918 32.9167 28.8668 32.65 28.6001C32.3833 28.3334 32.25 28.0334 32.25 27.7001C32.25 27.3668 32.35 27.0668 32.55 26.8001C33.2833 25.8334 33.8583 24.7334 34.275 23.5001C34.6917 22.2668 34.9 21.1001 34.9 20.0001ZM41.5 20.0001C41.5 18.1001 41.1417 16.1334 40.425 14.1001C39.7083 12.0668 38.6667 10.2501 37.3 8.65009C37.0333 8.38342 36.8833 8.07509 36.85 7.72509C36.8167 7.37509 36.9333 7.06675 37.2 6.80009C37.4667 6.53342 37.775 6.40842 38.125 6.42509C38.475 6.44175 38.7667 6.58342 39 6.85009C40.7 8.75009 41.9583 10.8501 42.775 13.1501C43.5917 15.4501 44 17.7334 44 20.0001C44 22.3001 43.6083 24.5918 42.825 26.8751C42.0417 29.1584 40.7833 31.2501 39.05 33.1501C38.7833 33.4168 38.4833 33.5584 38.15 33.5751C37.8167 33.5918 37.5167 33.4668 37.25 33.2001C36.9833 32.9334 36.8583 32.6251 36.875 32.2751C36.8917 31.9251 37.0333 31.6168 37.3 31.3501C38.6667 29.7501 39.7083 27.9334 40.425 25.9001C41.1417 23.8668 41.5 21.9001 41.5 20.0001Z" fill="url(#paint0_linear_1641_129)"/>
</g>
<defs>
<linearGradient id="paint0_linear_1641_129" x1="4" y1="6.39453" x2="31.8382" y2="51.5053" gradientUnits="userSpaceOnUse">
<stop stop-color="#3A3E94"/>
<stop offset="1" stop-color="#69357C"/>
</linearGradient>
</defs>
</svg>
